<svg width="143" height="132" viewBox="0 0 143 132" fill="none" xmlns="http://www.w3.org/2000/svg">
<rect width="143" height="132" rx="66" fill="white"/>
<path d="M72.6 43.04V57H69.8V47.92L66.06 57H63.94L60.18 47.92V57H57.38V43.04H60.56L65 53.42L69.44 43.04H72.6ZM85.9683 45.92L79.1083 62.24H76.1283L78.5283 56.72L74.0883 45.92H77.2283L80.0883 53.66L82.9883 45.92H85.9683Z" fill="black"/>
<path d="M38.1836 74.4648V87.0625H36.3672V72.4336H38.0273L38.1836 74.4648ZM45.3027 77.6289V77.834C45.3027 78.6022 45.2116 79.3151 45.0293 79.9727C44.847 80.6237 44.5801 81.1901 44.2285 81.6719C43.8835 82.1536 43.457 82.528 42.9492 82.7949C42.4414 83.0618 41.8587 83.1953 41.2012 83.1953C40.5306 83.1953 39.9382 83.0846 39.4238 82.8633C38.9095 82.6419 38.4733 82.3197 38.1152 81.8965C37.7572 81.4733 37.4707 80.9655 37.2559 80.373C37.0475 79.7806 36.9043 79.1133 36.8262 78.3711V77.2773C36.9043 76.4961 37.0508 75.7962 37.2656 75.1777C37.4805 74.5592 37.7637 74.0319 38.1152 73.5957C38.4733 73.153 38.9062 72.8177 39.4141 72.5898C39.9219 72.3555 40.5078 72.2383 41.1719 72.2383C41.8359 72.2383 42.4251 72.3685 42.9395 72.6289C43.4538 72.8828 43.8867 73.2474 44.2383 73.7227C44.5898 74.1979 44.8535 74.7676 45.0293 75.4316C45.2116 76.0892 45.3027 76.8216 45.3027 77.6289ZM43.4863 77.834V77.6289C43.4863 77.1016 43.431 76.6068 43.3203 76.1445C43.2096 75.6758 43.0371 75.2656 42.8027 74.9141C42.5749 74.556 42.2819 74.276 41.9238 74.0742C41.5658 73.8659 41.1393 73.7617 40.6445 73.7617C40.1888 73.7617 39.7917 73.8398 39.4531 73.9961C39.1211 74.1523 38.8379 74.3639 38.6035 74.6309C38.3691 74.8913 38.1771 75.1908 38.0273 75.5293C37.8841 75.8613 37.7767 76.2064 37.7051 76.5645V79.0938C37.8353 79.5495 38.0176 79.9792 38.252 80.3828C38.4863 80.7799 38.7988 81.1022 39.1895 81.3496C39.5801 81.5905 40.0716 81.7109 40.6641 81.7109C41.1523 81.7109 41.5723 81.61 41.9238 81.4082C42.2819 81.1999 42.5749 80.9167 42.8027 80.5586C43.0371 80.2005 43.2096 79.7904 43.3203 79.3281C43.431 78.8594 43.4863 78.3613 43.4863 77.834ZM49.4141 74.0938V83H47.6074V72.4336H49.3652L49.4141 74.0938ZM52.7148 72.375L52.7051 74.0547C52.5553 74.0221 52.4121 74.0026 52.2754 73.9961C52.1452 73.9831 51.9954 73.9766 51.8262 73.9766C51.4095 73.9766 51.0417 74.0417 50.7227 74.1719C50.4036 74.3021 50.1335 74.4844 49.9121 74.7188C49.6908 74.9531 49.515 75.2331 49.3848 75.5586C49.2611 75.8776 49.1797 76.2292 49.1406 76.6133L48.6328 76.9062C48.6328 76.2682 48.6947 75.6693 48.8184 75.1094C48.9486 74.5495 49.1471 74.0547 49.4141 73.625C49.681 73.1888 50.0195 72.8503 50.4297 72.6094C50.8464 72.362 51.3411 72.2383 51.9141 72.2383C52.0443 72.2383 52.194 72.2546 52.3633 72.2871C52.5326 72.3132 52.6497 72.3424 52.7148 72.375ZM53.7109 77.834V77.6094C53.7109 76.8477 53.8216 76.1413 54.043 75.4902C54.2643 74.8327 54.5833 74.263 55 73.7812C55.4167 73.293 55.9212 72.9154 56.5137 72.6484C57.1061 72.375 57.7702 72.2383 58.5059 72.2383C59.248 72.2383 59.9154 72.375 60.5078 72.6484C61.1068 72.9154 61.6146 73.293 62.0312 73.7812C62.4544 74.263 62.7767 74.8327 62.998 75.4902C63.2194 76.1413 63.3301 76.8477 63.3301 77.6094V77.834C63.3301 78.5957 63.2194 79.3021 62.998 79.9531C62.7767 80.6042 62.4544 81.1738 62.0312 81.6621C61.6146 82.1439 61.11 82.5215 60.5176 82.7949C59.9316 83.0618 59.2676 83.1953 58.5254 83.1953C57.7832 83.1953 57.1159 83.0618 56.5234 82.7949C55.931 82.5215 55.4232 82.1439 55 81.6621C54.5833 81.1738 54.2643 80.6042 54.043 79.9531C53.8216 79.3021 53.7109 78.5957 53.7109 77.834ZM55.5176 77.6094V77.834C55.5176 78.3613 55.5794 78.8594 55.7031 79.3281C55.8268 79.7904 56.0124 80.2005 56.2598 80.5586C56.5137 80.9167 56.8294 81.1999 57.207 81.4082C57.5846 81.61 58.0241 81.7109 58.5254 81.7109C59.0202 81.7109 59.4531 81.61 59.8242 81.4082C60.2018 81.1999 60.5143 80.9167 60.7617 80.5586C61.0091 80.2005 61.1947 79.7904 61.3184 79.3281C61.4486 78.8594 61.5137 78.3613 61.5137 77.834V77.6094C61.5137 77.0885 61.4486 76.597 61.3184 76.1348C61.1947 75.666 61.0059 75.2526 60.752 74.8945C60.5046 74.5299 60.1921 74.2435 59.8145 74.0352C59.4434 73.8268 59.0072 73.7227 58.5059 73.7227C58.0111 73.7227 57.5749 73.8268 57.1973 74.0352C56.8262 74.2435 56.5137 74.5299 56.2598 74.8945C56.0124 75.2526 55.8268 75.666 55.7031 76.1348C55.5794 76.597 55.5176 77.0885 55.5176 77.6094ZM65.6445 72.4336H67.4609V84.2598C67.4609 84.9043 67.3568 85.4512 67.1484 85.9004C66.9466 86.3496 66.6406 86.6882 66.2305 86.916C65.8268 87.1504 65.3158 87.2676 64.6973 87.2676C64.5345 87.2676 64.3457 87.2513 64.1309 87.2188C63.9095 87.1862 63.724 87.1471 63.5742 87.1016L63.584 85.6465C63.7077 85.6725 63.8477 85.6921 64.0039 85.7051C64.1602 85.7246 64.2969 85.7344 64.4141 85.7344C64.681 85.7344 64.9056 85.6855 65.0879 85.5879C65.2702 85.4902 65.4069 85.334 65.498 85.1191C65.5957 84.9043 65.6445 84.6178 65.6445 84.2598V72.4336ZM65.459 69.6309C65.459 69.3379 65.5501 69.0905 65.7324 68.8887C65.9147 68.6868 66.1784 68.5859 66.5234 68.5859C66.875 68.5859 67.1419 68.6868 67.3242 68.8887C67.5065 69.0905 67.5977 69.3379 67.5977 69.6309C67.5977 69.9108 67.5065 70.1517 67.3242 70.3535C67.1419 70.5488 66.875 70.6465 66.5234 70.6465C66.1784 70.6465 65.9147 70.5488 65.7324 70.3535C65.5501 70.1517 65.459 69.9108 65.459 69.6309ZM74.7656 83.1953C74.0299 83.1953 73.3626 83.0716 72.7637 82.8242C72.1712 82.5703 71.6602 82.2155 71.2305 81.7598C70.8073 81.304 70.4818 80.7637 70.2539 80.1387C70.026 79.5137 69.9121 78.8301 69.9121 78.0879V77.6777C69.9121 76.8184 70.0391 76.0534 70.293 75.3828C70.5469 74.7057 70.8919 74.1328 71.3281 73.6641C71.7643 73.1953 72.2591 72.8405 72.8125 72.5996C73.3659 72.3587 73.9388 72.2383 74.5312 72.2383C75.2865 72.2383 75.9375 72.3685 76.4844 72.6289C77.0378 72.8893 77.4902 73.2539 77.8418 73.7227C78.1934 74.1849 78.4538 74.7318 78.623 75.3633C78.7923 75.9883 78.877 76.6719 78.877 77.4141V78.2246H70.9863V76.75H77.0703V76.6133C77.0443 76.1445 76.9466 75.6888 76.7773 75.2461C76.6146 74.8034 76.3542 74.4388 75.9961 74.1523C75.638 73.8659 75.1497 73.7227 74.5312 73.7227C74.1211 73.7227 73.7435 73.8105 73.3984 73.9863C73.0534 74.1556 72.7572 74.4095 72.5098 74.748C72.2624 75.0866 72.0703 75.5 71.9336 75.9883C71.7969 76.4766 71.7285 77.0397 71.7285 77.6777V78.0879C71.7285 78.5892 71.7969 79.0612 71.9336 79.5039C72.0768 79.9401 72.2819 80.3242 72.5488 80.6562C72.8223 80.9883 73.151 81.2487 73.5352 81.4375C73.9258 81.6263 74.3685 81.7207 74.8633 81.7207C75.5013 81.7207 76.0417 81.5905 76.4844 81.3301C76.9271 81.0697 77.3145 80.7214 77.6465 80.2852L78.7402 81.1543C78.5124 81.4993 78.2227 81.8281 77.8711 82.1406C77.5195 82.4531 77.0866 82.707 76.5723 82.9023C76.0645 83.0977 75.4622 83.1953 74.7656 83.1953ZM85.2148 81.7109C85.6445 81.7109 86.0417 81.623 86.4062 81.4473C86.7708 81.2715 87.0703 81.0306 87.3047 80.7246C87.5391 80.4121 87.6725 80.0573 87.7051 79.6602H89.4238C89.3913 80.2852 89.1797 80.8678 88.7891 81.4082C88.4049 81.9421 87.9004 82.375 87.2754 82.707C86.6504 83.0326 85.9635 83.1953 85.2148 83.1953C84.4206 83.1953 83.7272 83.0553 83.1348 82.7754C82.5488 82.4954 82.0605 82.1113 81.6699 81.623C81.2858 81.1348 80.9961 80.5749 80.8008 79.9434C80.612 79.3053 80.5176 78.6315 80.5176 77.9219V77.5117C80.5176 76.8021 80.612 76.1315 80.8008 75.5C80.9961 74.862 81.2858 74.2988 81.6699 73.8105C82.0605 73.3223 82.5488 72.9382 83.1348 72.6582C83.7272 72.3783 84.4206 72.2383 85.2148 72.2383C86.0417 72.2383 86.7643 72.4076 87.3828 72.7461C88.0013 73.0781 88.4863 73.5339 88.8379 74.1133C89.196 74.6862 89.3913 75.3372 89.4238 76.0664H87.7051C87.6725 75.6302 87.5488 75.2363 87.334 74.8848C87.1257 74.5332 86.8392 74.2533 86.4746 74.0449C86.1165 73.8301 85.6966 73.7227 85.2148 73.7227C84.6615 73.7227 84.196 73.8333 83.8184 74.0547C83.4473 74.2695 83.151 74.5625 82.9297 74.9336C82.7148 75.2982 82.5586 75.7051 82.4609 76.1543C82.3698 76.597 82.3242 77.0495 82.3242 77.5117V77.9219C82.3242 78.3841 82.3698 78.8398 82.4609 79.2891C82.5521 79.7383 82.7051 80.1452 82.9199 80.5098C83.1413 80.8743 83.4375 81.1673 83.8086 81.3887C84.1862 81.6035 84.6549 81.7109 85.2148 81.7109ZM95.8789 72.4336V73.8203H90.166V72.4336H95.8789ZM92.0996 69.8652H93.9062V80.3828C93.9062 80.7409 93.9616 81.0111 94.0723 81.1934C94.1829 81.3757 94.3262 81.4961 94.502 81.5547C94.6777 81.6133 94.8665 81.6426 95.0684 81.6426C95.2181 81.6426 95.3743 81.6296 95.5371 81.6035C95.7064 81.571 95.8333 81.5449 95.918 81.5254L95.9277 83C95.7845 83.0456 95.5957 83.0879 95.3613 83.127C95.1335 83.1725 94.8568 83.1953 94.5312 83.1953C94.0885 83.1953 93.6816 83.1074 93.3105 82.9316C92.9395 82.7559 92.6432 82.4629 92.4219 82.0527C92.207 81.6361 92.0996 81.0762 92.0996 80.373V69.8652ZM104.15 80.1973C104.15 79.9368 104.092 79.696 103.975 79.4746C103.864 79.2467 103.633 79.0417 103.281 78.8594C102.936 78.6706 102.415 78.5078 101.719 78.3711C101.133 78.2474 100.602 78.1009 100.127 77.9316C99.6582 77.7624 99.2578 77.5573 98.9258 77.3164C98.6003 77.0755 98.3496 76.7923 98.1738 76.4668C97.998 76.1413 97.9102 75.7604 97.9102 75.3242C97.9102 74.9076 98.0013 74.5137 98.1836 74.1426C98.3724 73.7715 98.6361 73.4427 98.9746 73.1562C99.3197 72.8698 99.7331 72.6452 100.215 72.4824C100.697 72.3197 101.234 72.2383 101.826 72.2383C102.673 72.2383 103.395 72.388 103.994 72.6875C104.593 72.987 105.052 73.3874 105.371 73.8887C105.69 74.3835 105.85 74.9336 105.85 75.5391H104.043C104.043 75.2461 103.955 74.9629 103.779 74.6895C103.61 74.4095 103.359 74.1784 103.027 73.9961C102.702 73.8138 102.301 73.7227 101.826 73.7227C101.325 73.7227 100.918 73.8008 100.605 73.957C100.299 74.1068 100.075 74.2988 99.9316 74.5332C99.7949 74.7676 99.7266 75.015 99.7266 75.2754C99.7266 75.4707 99.7591 75.6465 99.8242 75.8027C99.8958 75.9525 100.02 76.0924 100.195 76.2227C100.371 76.3464 100.618 76.4635 100.938 76.5742C101.257 76.6849 101.663 76.7956 102.158 76.9062C103.024 77.1016 103.737 77.3359 104.297 77.6094C104.857 77.8828 105.273 78.2181 105.547 78.6152C105.82 79.0124 105.957 79.4941 105.957 80.0605C105.957 80.5228 105.859 80.946 105.664 81.3301C105.475 81.7142 105.199 82.0462 104.834 82.3262C104.476 82.5996 104.046 82.8145 103.545 82.9707C103.05 83.1204 102.493 83.1953 101.875 83.1953C100.944 83.1953 100.156 83.0293 99.5117 82.6973C98.8672 82.3652 98.3789 81.9355 98.0469 81.4082C97.7148 80.8809 97.5488 80.3242 97.5488 79.7383H99.3652C99.3913 80.2331 99.5345 80.627 99.7949 80.9199C100.055 81.2064 100.374 81.4115 100.752 81.5352C101.13 81.6523 101.504 81.7109 101.875 81.7109C102.37 81.7109 102.783 81.6458 103.115 81.5156C103.454 81.3854 103.711 81.2064 103.887 80.9785C104.062 80.7507 104.15 80.4902 104.15 80.1973Z" fill="black"/>
<path d="M20.912 73.56C21.9573 73.5173 22.7253 73.2933 23.216 72.888C23.7067 72.4613 23.952 71.864 23.952 71.096C23.952 70.52 23.8453 69.3787 23.632 67.672C23.6107 67.5013 23.5467 66.9573 23.44 66.04C23.3333 65.1013 23.28 64.2587 23.28 63.512C23.28 61.6987 23.8347 60.2907 24.944 59.288C26.0533 58.264 27.536 57.752 29.392 57.752H31.696V62.232H30.448C29.7653 62.232 29.2747 62.3813 28.976 62.68C28.6773 62.9787 28.528 63.4373 28.528 64.056C28.528 64.5253 28.6133 65.592 28.784 67.256C28.976 69.3253 29.072 70.68 29.072 71.32C29.072 72.4933 28.784 73.464 28.208 74.232C27.6533 75 26.8 75.4907 25.648 75.704V75.768C26.8 76.0027 27.6533 76.504 28.208 77.272C28.784 78.0187 29.072 78.9893 29.072 80.184C29.072 80.824 28.976 82.1787 28.784 84.248C28.6133 85.8693 28.528 86.9253 28.528 87.416C28.528 88.0347 28.6773 88.4933 28.976 88.792C29.2747 89.112 29.7653 89.272 30.448 89.272H31.696V93.752H29.392C27.536 93.752 26.0533 93.24 24.944 92.216C23.8347 91.2133 23.28 89.7947 23.28 87.96C23.28 87.2133 23.3333 86.3813 23.44 85.464C23.5467 84.5253 23.6107 83.9707 23.632 83.8C23.8453 82.0933 23.952 80.952 23.952 80.376C23.952 79.6507 23.7067 79.0747 23.216 78.648C22.7253 78.2 21.9573 77.9547 20.912 77.912V73.56ZM121.619 77.912C120.573 77.9547 119.805 78.2 119.315 78.648C118.824 79.0747 118.579 79.6507 118.579 80.376C118.579 80.952 118.685 82.0933 118.899 83.8C118.92 83.9707 118.984 84.5253 119.091 85.464C119.197 86.3813 119.251 87.2133 119.251 87.96C119.251 89.7947 118.696 91.2133 117.587 92.216C116.477 93.24 114.995 93.752 113.139 93.752H110.835V89.272H112.083C112.765 89.272 113.256 89.112 113.555 88.792C113.853 88.4933 114.003 88.0347 114.003 87.416C114.003 86.9253 113.917 85.8693 113.747 84.248C113.555 82.1787 113.459 80.824 113.459 80.184C113.459 78.9893 113.736 78.0187 114.291 77.272C114.867 76.504 115.731 76.0027 116.883 75.768V75.704C115.731 75.4907 114.867 75 114.291 74.232C113.736 73.464 113.459 72.4933 113.459 71.32C113.459 70.68 113.555 69.3253 113.747 67.256C113.917 65.592 114.003 64.5253 114.003 64.056C114.003 63.4373 113.853 62.9787 113.555 62.68C113.256 62.3813 112.765 62.232 112.083 62.232H110.835V57.752H113.139C114.995 57.752 116.477 58.264 117.587 59.288C118.696 60.2907 119.251 61.6987 119.251 63.512C119.251 64.2587 119.197 65.1013 119.091 66.04C118.984 66.9573 118.92 67.5013 118.899 67.672C118.685 69.3787 118.579 70.52 118.579 71.096C118.579 71.864 118.824 72.4613 119.315 72.888C119.805 73.2933 120.573 73.5173 121.619 73.56V77.912Z" fill="#DE7325"/>
</svg>
