<svg width="107" height="63" viewBox="0 0 107 63" fill="none" xmlns="http://www.w3.org/2000/svg">
<path d="M52.6 8.04V22H49.8V12.92L46.06 22H43.94L40.18 12.92V22H37.38V8.04H40.56L45 18.42L49.44 8.04H52.6ZM65.9683 10.92L59.1083 27.24H56.1283L58.5283 21.72L54.0883 10.92H57.2283L60.0883 18.66L62.9883 10.92H65.9683Z" fill="black"/>
<path d="M2.912 36.56C3.95733 36.5173 4.72533 36.2933 5.216 35.888C5.70667 35.4613 5.952 34.864 5.952 34.096C5.952 33.52 5.84533 32.3787 5.632 30.672C5.61067 30.5013 5.54667 29.9573 5.44 29.04C5.33333 28.1013 5.28 27.2587 5.28 26.512C5.28 24.6987 5.83467 23.2907 6.944 22.288C8.05333 21.264 9.536 20.752 11.392 20.752H13.696V25.232H12.448C11.7653 25.232 11.2747 25.3813 10.976 25.68C10.6773 25.9787 10.528 26.4373 10.528 27.056C10.528 27.5253 10.6133 28.592 10.784 30.256C10.976 32.3253 11.072 33.68 11.072 34.32C11.072 35.4933 10.784 36.464 10.208 37.232C9.65333 38 8.8 38.4907 7.648 38.704V38.768C8.8 39.0027 9.65333 39.504 10.208 40.272C10.784 41.0187 11.072 41.9893 11.072 43.184C11.072 43.824 10.976 45.1787 10.784 47.248C10.6133 48.8693 10.528 49.9253 10.528 50.416C10.528 51.0347 10.6773 51.4933 10.976 51.792C11.2747 52.112 11.7653 52.272 12.448 52.272H13.696V56.752H11.392C9.536 56.752 8.05333 56.24 6.944 55.216C5.83467 54.2133 5.28 52.7947 5.28 50.96C5.28 50.2133 5.33333 49.3813 5.44 48.464C5.54667 47.5253 5.61067 46.9707 5.632 46.8C5.84533 45.0933 5.952 43.952 5.952 43.376C5.952 42.6507 5.70667 42.0747 5.216 41.648C4.72533 41.2 3.95733 40.9547 2.912 40.912V36.56ZM103.619 40.912C102.573 40.9547 101.805 41.2 101.315 41.648C100.824 42.0747 100.579 42.6507 100.579 43.376C100.579 43.952 100.685 45.0933 100.899 46.8C100.92 46.9707 100.984 47.5253 101.091 48.464C101.197 49.3813 101.251 50.2133 101.251 50.96C101.251 52.7947 100.696 54.2133 99.5865 55.216C98.4772 56.24 96.9945 56.752 95.1385 56.752H92.8345V52.272H94.0825C94.7652 52.272 95.2558 52.112 95.5545 51.792C95.8532 51.4933 96.0025 51.0347 96.0025 50.416C96.0025 49.9253 95.9172 48.8693 95.7465 47.248C95.5545 45.1787 95.4585 43.824 95.4585 43.184C95.4585 41.9893 95.7358 41.0187 96.2905 40.272C96.8665 39.504 97.7305 39.0027 98.8825 38.768V38.704C97.7305 38.4907 96.8665 38 96.2905 37.232C95.7358 36.464 95.4585 35.4933 95.4585 34.32C95.4585 33.68 95.5545 32.3253 95.7465 30.256C95.9172 28.592 96.0025 27.5253 96.0025 27.056C96.0025 26.4373 95.8532 25.9787 95.5545 25.68C95.2558 25.3813 94.7652 25.232 94.0825 25.232H92.8345V20.752H95.1385C96.9945 20.752 98.4772 21.264 99.5865 22.288C100.696 23.2907 101.251 24.6987 101.251 26.512C101.251 27.2587 101.197 28.1013 101.091 29.04C100.984 29.9573 100.92 30.5013 100.899 30.672C100.685 32.3787 100.579 33.52 100.579 34.096C100.579 34.864 100.824 35.4613 101.315 35.888C101.805 36.2933 102.573 36.5173 103.619 36.56V40.912Z" fill="#DE7325"/>
<path d="M20.1836 36.4648V49.0625H18.3672V34.4336H20.0273L20.1836 36.4648ZM27.3027 39.6289V39.834C27.3027 40.6022 27.2116 41.3151 27.0293 41.9727C26.847 42.6237 26.5801 43.1901 26.2285 43.6719C25.8835 44.1536 25.457 44.528 24.9492 44.7949C24.4414 45.0618 23.8587 45.1953 23.2012 45.1953C22.5306 45.1953 21.9382 45.0846 21.4238 44.8633C20.9095 44.6419 20.4733 44.3197 20.1152 43.8965C19.7572 43.4733 19.4707 42.9655 19.2559 42.373C19.0475 41.7806 18.9043 41.1133 18.8262 40.3711V39.2773C18.9043 38.4961 19.0508 37.7962 19.2656 37.1777C19.4805 36.5592 19.7637 36.0319 20.1152 35.5957C20.4733 35.153 20.9062 34.8177 21.4141 34.5898C21.9219 34.3555 22.5078 34.2383 23.1719 34.2383C23.8359 34.2383 24.4251 34.3685 24.9395 34.6289C25.4538 34.8828 25.8867 35.2474 26.2383 35.7227C26.5898 36.1979 26.8535 36.7676 27.0293 37.4316C27.2116 38.0892 27.3027 38.8216 27.3027 39.6289ZM25.4863 39.834V39.6289C25.4863 39.1016 25.431 38.6068 25.3203 38.1445C25.2096 37.6758 25.0371 37.2656 24.8027 36.9141C24.5749 36.556 24.2819 36.276 23.9238 36.0742C23.5658 35.8659 23.1393 35.7617 22.6445 35.7617C22.1888 35.7617 21.7917 35.8398 21.4531 35.9961C21.1211 36.1523 20.8379 36.3639 20.6035 36.6309C20.3691 36.8913 20.1771 37.1908 20.0273 37.5293C19.8841 37.8613 19.7767 38.2064 19.7051 38.5645V41.0938C19.8353 41.5495 20.0176 41.9792 20.252 42.3828C20.4863 42.7799 20.7988 43.1022 21.1895 43.3496C21.5801 43.5905 22.0716 43.7109 22.6641 43.7109C23.1523 43.7109 23.5723 43.61 23.9238 43.4082C24.2819 43.1999 24.5749 42.9167 24.8027 42.5586C25.0371 42.2005 25.2096 41.7904 25.3203 41.3281C25.431 40.8594 25.4863 40.3613 25.4863 39.834ZM31.4141 36.0938V45H29.6074V34.4336H31.3652L31.4141 36.0938ZM34.7148 34.375L34.7051 36.0547C34.5553 36.0221 34.4121 36.0026 34.2754 35.9961C34.1452 35.9831 33.9954 35.9766 33.8262 35.9766C33.4095 35.9766 33.0417 36.0417 32.7227 36.1719C32.4036 36.3021 32.1335 36.4844 31.9121 36.7188C31.6908 36.9531 31.515 37.2331 31.3848 37.5586C31.2611 37.8776 31.1797 38.2292 31.1406 38.6133L30.6328 38.9062C30.6328 38.2682 30.6947 37.6693 30.8184 37.1094C30.9486 36.5495 31.1471 36.0547 31.4141 35.625C31.681 35.1888 32.0195 34.8503 32.4297 34.6094C32.8464 34.362 33.3411 34.2383 33.9141 34.2383C34.0443 34.2383 34.194 34.2546 34.3633 34.2871C34.5326 34.3132 34.6497 34.3424 34.7148 34.375ZM35.7109 39.834V39.6094C35.7109 38.8477 35.8216 38.1413 36.043 37.4902C36.2643 36.8327 36.5833 36.263 37 35.7812C37.4167 35.293 37.9212 34.9154 38.5137 34.6484C39.1061 34.375 39.7702 34.2383 40.5059 34.2383C41.248 34.2383 41.9154 34.375 42.5078 34.6484C43.1068 34.9154 43.6146 35.293 44.0312 35.7812C44.4544 36.263 44.7767 36.8327 44.998 37.4902C45.2194 38.1413 45.3301 38.8477 45.3301 39.6094V39.834C45.3301 40.5957 45.2194 41.3021 44.998 41.9531C44.7767 42.6042 44.4544 43.1738 44.0312 43.6621C43.6146 44.1439 43.11 44.5215 42.5176 44.7949C41.9316 45.0618 41.2676 45.1953 40.5254 45.1953C39.7832 45.1953 39.1159 45.0618 38.5234 44.7949C37.931 44.5215 37.4232 44.1439 37 43.6621C36.5833 43.1738 36.2643 42.6042 36.043 41.9531C35.8216 41.3021 35.7109 40.5957 35.7109 39.834ZM37.5176 39.6094V39.834C37.5176 40.3613 37.5794 40.8594 37.7031 41.3281C37.8268 41.7904 38.0124 42.2005 38.2598 42.5586C38.5137 42.9167 38.8294 43.1999 39.207 43.4082C39.5846 43.61 40.0241 43.7109 40.5254 43.7109C41.0202 43.7109 41.4531 43.61 41.8242 43.4082C42.2018 43.1999 42.5143 42.9167 42.7617 42.5586C43.0091 42.2005 43.1947 41.7904 43.3184 41.3281C43.4486 40.8594 43.5137 40.3613 43.5137 39.834V39.6094C43.5137 39.0885 43.4486 38.597 43.3184 38.1348C43.1947 37.666 43.0059 37.2526 42.752 36.8945C42.5046 36.5299 42.1921 36.2435 41.8145 36.0352C41.4434 35.8268 41.0072 35.7227 40.5059 35.7227C40.0111 35.7227 39.5749 35.8268 39.1973 36.0352C38.8262 36.2435 38.5137 36.5299 38.2598 36.8945C38.0124 37.2526 37.8268 37.666 37.7031 38.1348C37.5794 38.597 37.5176 39.0885 37.5176 39.6094ZM47.6445 34.4336H49.4609V46.2598C49.4609 46.9043 49.3568 47.4512 49.1484 47.9004C48.9466 48.3496 48.6406 48.6882 48.2305 48.916C47.8268 49.1504 47.3158 49.2676 46.6973 49.2676C46.5345 49.2676 46.3457 49.2513 46.1309 49.2188C45.9095 49.1862 45.724 49.1471 45.5742 49.1016L45.584 47.6465C45.7077 47.6725 45.8477 47.6921 46.0039 47.7051C46.1602 47.7246 46.2969 47.7344 46.4141 47.7344C46.681 47.7344 46.9056 47.6855 47.0879 47.5879C47.2702 47.4902 47.4069 47.334 47.498 47.1191C47.5957 46.9043 47.6445 46.6178 47.6445 46.2598V34.4336ZM47.459 31.6309C47.459 31.3379 47.5501 31.0905 47.7324 30.8887C47.9147 30.6868 48.1784 30.5859 48.5234 30.5859C48.875 30.5859 49.1419 30.6868 49.3242 30.8887C49.5065 31.0905 49.5977 31.3379 49.5977 31.6309C49.5977 31.9108 49.5065 32.1517 49.3242 32.3535C49.1419 32.5488 48.875 32.6465 48.5234 32.6465C48.1784 32.6465 47.9147 32.5488 47.7324 32.3535C47.5501 32.1517 47.459 31.9108 47.459 31.6309ZM56.7656 45.1953C56.0299 45.1953 55.3626 45.0716 54.7637 44.8242C54.1712 44.5703 53.6602 44.2155 53.2305 43.7598C52.8073 43.304 52.4818 42.7637 52.2539 42.1387C52.026 41.5137 51.9121 40.8301 51.9121 40.0879V39.6777C51.9121 38.8184 52.0391 38.0534 52.293 37.3828C52.5469 36.7057 52.8919 36.1328 53.3281 35.6641C53.7643 35.1953 54.2591 34.8405 54.8125 34.5996C55.3659 34.3587 55.9388 34.2383 56.5312 34.2383C57.2865 34.2383 57.9375 34.3685 58.4844 34.6289C59.0378 34.8893 59.4902 35.2539 59.8418 35.7227C60.1934 36.1849 60.4538 36.7318 60.623 37.3633C60.7923 37.9883 60.877 38.6719 60.877 39.4141V40.2246H52.9863V38.75H59.0703V38.6133C59.0443 38.1445 58.9466 37.6888 58.7773 37.2461C58.6146 36.8034 58.3542 36.4388 57.9961 36.1523C57.638 35.8659 57.1497 35.7227 56.5312 35.7227C56.1211 35.7227 55.7435 35.8105 55.3984 35.9863C55.0534 36.1556 54.7572 36.4095 54.5098 36.748C54.2624 37.0866 54.0703 37.5 53.9336 37.9883C53.7969 38.4766 53.7285 39.0397 53.7285 39.6777V40.0879C53.7285 40.5892 53.7969 41.0612 53.9336 41.5039C54.0768 41.9401 54.2819 42.3242 54.5488 42.6562C54.8223 42.9883 55.151 43.2487 55.5352 43.4375C55.9258 43.6263 56.3685 43.7207 56.8633 43.7207C57.5013 43.7207 58.0417 43.5905 58.4844 43.3301C58.9271 43.0697 59.3145 42.7214 59.6465 42.2852L60.7402 43.1543C60.5124 43.4993 60.2227 43.8281 59.8711 44.1406C59.5195 44.4531 59.0866 44.707 58.5723 44.9023C58.0645 45.0977 57.4622 45.1953 56.7656 45.1953ZM67.2148 43.7109C67.6445 43.7109 68.0417 43.623 68.4062 43.4473C68.7708 43.2715 69.0703 43.0306 69.3047 42.7246C69.5391 42.4121 69.6725 42.0573 69.7051 41.6602H71.4238C71.3913 42.2852 71.1797 42.8678 70.7891 43.4082C70.4049 43.9421 69.9004 44.375 69.2754 44.707C68.6504 45.0326 67.9635 45.1953 67.2148 45.1953C66.4206 45.1953 65.7272 45.0553 65.1348 44.7754C64.5488 44.4954 64.0605 44.1113 63.6699 43.623C63.2858 43.1348 62.9961 42.5749 62.8008 41.9434C62.612 41.3053 62.5176 40.6315 62.5176 39.9219V39.5117C62.5176 38.8021 62.612 38.1315 62.8008 37.5C62.9961 36.862 63.2858 36.2988 63.6699 35.8105C64.0605 35.3223 64.5488 34.9382 65.1348 34.6582C65.7272 34.3783 66.4206 34.2383 67.2148 34.2383C68.0417 34.2383 68.7643 34.4076 69.3828 34.7461C70.0013 35.0781 70.4863 35.5339 70.8379 36.1133C71.196 36.6862 71.3913 37.3372 71.4238 38.0664H69.7051C69.6725 37.6302 69.5488 37.2363 69.334 36.8848C69.1257 36.5332 68.8392 36.2533 68.4746 36.0449C68.1165 35.8301 67.6966 35.7227 67.2148 35.7227C66.6615 35.7227 66.196 35.8333 65.8184 36.0547C65.4473 36.2695 65.151 36.5625 64.9297 36.9336C64.7148 37.2982 64.5586 37.7051 64.4609 38.1543C64.3698 38.597 64.3242 39.0495 64.3242 39.5117V39.9219C64.3242 40.3841 64.3698 40.8398 64.4609 41.2891C64.5521 41.7383 64.7051 42.1452 64.9199 42.5098C65.1413 42.8743 65.4375 43.1673 65.8086 43.3887C66.1862 43.6035 66.6549 43.7109 67.2148 43.7109ZM77.8789 34.4336V35.8203H72.166V34.4336H77.8789ZM74.0996 31.8652H75.9062V42.3828C75.9062 42.7409 75.9616 43.0111 76.0723 43.1934C76.1829 43.3757 76.3262 43.4961 76.502 43.5547C76.6777 43.6133 76.8665 43.6426 77.0684 43.6426C77.2181 43.6426 77.3743 43.6296 77.5371 43.6035C77.7064 43.571 77.8333 43.5449 77.918 43.5254L77.9277 45C77.7845 45.0456 77.5957 45.0879 77.3613 45.127C77.1335 45.1725 76.8568 45.1953 76.5312 45.1953C76.0885 45.1953 75.6816 45.1074 75.3105 44.9316C74.9395 44.7559 74.6432 44.4629 74.4219 44.0527C74.207 43.6361 74.0996 43.0762 74.0996 42.373V31.8652ZM86.1504 42.1973C86.1504 41.9368 86.0918 41.696 85.9746 41.4746C85.8639 41.2467 85.6328 41.0417 85.2812 40.8594C84.9362 40.6706 84.4154 40.5078 83.7188 40.3711C83.1328 40.2474 82.6022 40.1009 82.127 39.9316C81.6582 39.7624 81.2578 39.5573 80.9258 39.3164C80.6003 39.0755 80.3496 38.7923 80.1738 38.4668C79.998 38.1413 79.9102 37.7604 79.9102 37.3242C79.9102 36.9076 80.0013 36.5137 80.1836 36.1426C80.3724 35.7715 80.6361 35.4427 80.9746 35.1562C81.3197 34.8698 81.7331 34.6452 82.2148 34.4824C82.6966 34.3197 83.2337 34.2383 83.8262 34.2383C84.6725 34.2383 85.3952 34.388 85.9941 34.6875C86.5931 34.987 87.0521 35.3874 87.3711 35.8887C87.6901 36.3835 87.8496 36.9336 87.8496 37.5391H86.043C86.043 37.2461 85.9551 36.9629 85.7793 36.6895C85.61 36.4095 85.3594 36.1784 85.0273 35.9961C84.7018 35.8138 84.3014 35.7227 83.8262 35.7227C83.3249 35.7227 82.918 35.8008 82.6055 35.957C82.2995 36.1068 82.0749 36.2988 81.9316 36.5332C81.7949 36.7676 81.7266 37.015 81.7266 37.2754C81.7266 37.4707 81.7591 37.6465 81.8242 37.8027C81.8958 37.9525 82.0195 38.0924 82.1953 38.2227C82.3711 38.3464 82.6185 38.4635 82.9375 38.5742C83.2565 38.6849 83.6634 38.7956 84.1582 38.9062C85.0241 39.1016 85.737 39.3359 86.2969 39.6094C86.8568 39.8828 87.2734 40.2181 87.5469 40.6152C87.8203 41.0124 87.957 41.4941 87.957 42.0605C87.957 42.5228 87.8594 42.946 87.6641 43.3301C87.4753 43.7142 87.1986 44.0462 86.834 44.3262C86.4759 44.5996 86.0462 44.8145 85.5449 44.9707C85.0501 45.1204 84.4935 45.1953 83.875 45.1953C82.944 45.1953 82.1562 45.0293 81.5117 44.6973C80.8672 44.3652 80.3789 43.9355 80.0469 43.4082C79.7148 42.8809 79.5488 42.3242 79.5488 41.7383H81.3652C81.3913 42.2331 81.5345 42.627 81.7949 42.9199C82.0553 43.2064 82.3743 43.4115 82.752 43.5352C83.1296 43.6523 83.5039 43.7109 83.875 43.7109C84.3698 43.7109 84.7832 43.6458 85.1152 43.5156C85.4538 43.3854 85.7109 43.2064 85.8867 42.9785C86.0625 42.7507 86.1504 42.4902 86.1504 42.1973Z" fill="black"/>
</svg>
