<svg width="40" height="40" viewBox="0 0 40 40" fill="none" xmlns="http://www.w3.org/2000/svg">
<path d="M20.0016 3.33325C10.7933 3.33325 3.33496 10.7916 3.33496 19.9999C3.33296 23.4985 4.43263 26.9089 6.47798 29.7473C8.52333 32.5858 11.4105 34.7081 14.73 35.8133C15.5633 35.9583 15.8766 35.4582 15.8766 35.0199C15.8766 34.6249 15.855 33.3132 15.855 31.9166C11.6683 32.6882 10.585 30.8966 10.2516 29.9583C10.0633 29.4783 9.25163 27.9999 8.5433 27.6033C7.95996 27.2916 7.12663 26.5199 8.52163 26.4999C9.83496 26.4782 10.7716 27.7082 11.085 28.2082C12.585 30.7282 14.98 30.0199 15.9383 29.5832C16.085 28.4999 16.5216 27.7716 17.0016 27.3549C13.2933 26.9382 9.4183 25.4999 9.4183 19.1249C9.4183 17.3116 10.0633 15.8133 11.1266 14.6466C10.96 14.2299 10.3766 12.5216 11.2933 10.2299C11.2933 10.2299 12.6883 9.79159 15.8766 11.9366C17.2335 11.5606 18.6353 11.3716 20.0433 11.3749C21.46 11.3749 22.8766 11.5616 24.21 11.9366C27.3983 9.76992 28.7933 10.2299 28.7933 10.2299C29.71 12.5216 29.1266 14.2299 28.96 14.6466C30.0216 15.8133 30.6683 17.2916 30.6683 19.1249C30.6683 25.5216 26.7733 26.9382 23.065 27.3549C23.6683 27.8749 24.19 28.8749 24.19 30.4383C24.19 32.6666 24.1683 34.4582 24.1683 35.0216C24.1683 35.4582 24.4816 35.9782 25.315 35.8116C28.623 34.6943 31.4975 32.5678 33.5338 29.7315C35.5701 26.8951 36.6658 23.4916 36.6666 19.9999C36.6666 10.7916 29.2083 3.33325 20 3.33325" fill="#333333"/>
</svg>
